<?xml version="1.0" encoding="utf-8"?>
<!-- Generator: Adobe Illustrator 26.4.1, SVG Export Plug-In . SVG Version: 6.00 Build 0)  -->
<svg version="1.1" id="Layer_1" xmlns="http://www.w3.org/2000/svg" xmlns:xlink="http://www.w3.org/1999/xlink" x="0px" y="0px"
	 viewBox="0 0 256 256" style="enable-background:new 0 0 256 256;" xml:space="preserve">
<style type="text/css">
	.st0{fill:#F3F2E7;}
</style>
<g>
	<path class="st0" d="M128,1c33.92,0,65.82,13.21,89.8,37.2S255,94.08,255,128s-13.21,65.82-37.2,89.8S161.92,255,128,255
		s-65.82-13.21-89.8-37.2S1,161.92,1,128s13.21-65.82,37.2-89.8S94.08,1,128,1 M128,0C57.31,0,0,57.31,0,128s57.31,128,128,128
		s128-57.31,128-128S198.69,0,128,0L128,0z"/>
</g>
</svg>
