<?xml version="1.0" encoding="utf-8"?>
<!-- Generator: Adobe Illustrator 26.4.1, SVG Export Plug-In . SVG Version: 6.00 Build 0)  -->
<svg version="1.1" id="Layer_1" xmlns="http://www.w3.org/2000/svg" xmlns:xlink="http://www.w3.org/1999/xlink" x="0px" y="0px"
	 viewBox="0 0 128 256" style="enable-background:new 0 0 128 256;" xml:space="preserve">
<style type="text/css">
	.st0{fill:#F3F2E7;}
</style>
<g>
	<path class="st0" d="M0,1c33.92,0,65.82,13.21,89.8,37.2S127,94.08,127,128s-13.21,65.82-37.2,89.8S33.92,255,0,255
		s-65.82-13.21-89.8-37.2S-127,161.92-127,128s13.21-65.82,37.2-89.8S-33.92,1,0,1 M0,0c-70.69,0-128,57.31-128,128
		S-70.69,256,0,256s128-57.31,128-128S70.69,0,0,0L0,0z"/>
</g>
</svg>
